<!DOCTYPE svg PUBLIC "-//W3C//DTD SVG 1.1//EN" "http://www.w3.org/Graphics/SVG/1.1/DTD/svg11.dtd">
<!-- Uploaded to: SVG Repo, www.svgrepo.com, Transformed by: SVG Repo Mixer Tools -->
<svg fill="#ffffff" version="1.1" id="Capa_1" xmlns="http://www.w3.org/2000/svg" xmlns:xlink="http://www.w3.org/1999/xlink" width="800px" height="800px" viewBox="0 0 31.5 31.5" xml:space="preserve">
<g id="SVGRepo_bgCarrier" stroke-width="0"/>
<g id="SVGRepo_tracerCarrier" stroke-linecap="round" stroke-linejoin="round"/>
<g id="SVGRepo_iconCarrier"> <g> <g> <path d="M28.75,0h-26C1.232,0,0,1.233,0,2.75v26c0,1.518,1.232,2.75,2.75,2.75h22.895l5.855-5.855V2.75 C31.5,1.234,30.268,0,28.75,0z M24.583,2.042c0.817,0,1.479,0.662,1.479,1.479S25.4,5,24.583,5s-1.479-0.662-1.479-1.479 S23.766,2.042,24.583,2.042z M20.166,2.042c0.816,0,1.479,0.662,1.479,1.479S20.982,5,20.166,5s-1.479-0.662-1.479-1.479 S19.35,2.042,20.166,2.042z M15.75,2.042c0.816,0,1.479,0.662,1.479,1.479S16.567,5,15.75,5s-1.479-0.662-1.479-1.479 S14.933,2.042,15.75,2.042z M11.334,2.042c0.816,0,1.479,0.662,1.479,1.479S12.151,5,11.334,5c-0.818,0-1.48-0.662-1.48-1.479 S10.516,2.042,11.334,2.042z M6.917,2.042c0.817,0,1.479,0.662,1.479,1.479S7.734,5,6.917,5S5.438,4.338,5.438,3.521 S6.1,2.042,6.917,2.042z M30,25.023l-0.311,0.311h-2.355c-1.102,0-2,0.9-2,2v2.355L25.023,30H2.75c-0.689,0-1.25-0.561-1.25-1.25 v-22H30V25.023z"/> <path d="M15.844,16.555c0.147,0.086,0.29,0.096,0.426,0.027c0.214-0.098,0.426-0.328,0.637-0.691 c0.209-0.363,0.303-0.662,0.282-0.897c-0.014-0.148-0.094-0.266-0.24-0.351c-0.146-0.084-0.29-0.096-0.427-0.034 c-0.214,0.097-0.425,0.328-0.636,0.693c-0.211,0.365-0.306,0.664-0.283,0.897C15.616,16.352,15.697,16.47,15.844,16.555z"/> <path d="M19.596,20.835c-0.147-0.085-0.289-0.094-0.428-0.028c-0.213,0.098-0.424,0.328-0.636,0.693 c-0.21,0.365-0.306,0.665-0.282,0.896c0.014,0.149,0.092,0.266,0.24,0.352c0.146,0.085,0.289,0.097,0.427,0.035 c0.214-0.096,0.426-0.328,0.636-0.693c0.213-0.365,0.307-0.666,0.285-0.9C19.822,21.038,19.742,20.92,19.596,20.835z"/> <path d="M4.731,17.273c0.601,0.347,1.916,0.321,3.35-0.063c0.158-0.042,0.311-0.089,0.461-0.136L8.8,21.083l11.312,6.53 l6.529-11.311L15.33,9.772l-7.034,3.479l0.078,1.229c-0.312,0.051-0.637,0.119-0.969,0.207c-1.435,0.385-2.586,1.02-2.932,1.622 c-0.108,0.188-0.141,0.371-0.095,0.543C4.426,17.021,4.544,17.165,4.731,17.273z M20.8,22.797 c-0.298,0.516-0.692,0.838-1.184,0.969c-0.492,0.131-1.011,0.039-1.556-0.275c-0.365-0.21-0.641-0.469-0.826-0.772 c-0.187-0.303-0.267-0.627-0.24-0.972c0.025-0.344,0.127-0.668,0.302-0.973c0.177-0.304,0.405-0.553,0.69-0.746 c0.285-0.194,0.604-0.287,0.962-0.278c0.356,0.009,0.718,0.119,1.081,0.33c0.547,0.315,0.885,0.718,1.018,1.209 S21.098,22.282,20.8,22.797z M14.649,14.575c0.173-0.3,0.403-0.548,0.691-0.743c0.287-0.196,0.607-0.288,0.961-0.278 c0.354,0.009,0.715,0.12,1.083,0.333c0.542,0.313,0.88,0.714,1.015,1.204c0.134,0.489,0.052,0.991-0.246,1.507 c-0.299,0.52-0.694,0.842-1.186,0.971c-0.49,0.13-1.007,0.037-1.55-0.275c-0.368-0.212-0.645-0.469-0.83-0.771 c-0.185-0.301-0.265-0.625-0.239-0.972C14.374,15.203,14.474,14.879,14.649,14.575z M21.13,16.049l0.935,0.539l-7.736,4.758 l-0.923-0.533L21.13,16.049z M10.369,14.448c0.301-0.521,0.965-0.699,1.486-0.398c0.521,0.301,0.699,0.966,0.398,1.487 c-0.301,0.521-0.966,0.699-1.487,0.398c-0.009-0.006-0.014-0.015-0.022-0.021c0.11-0.108,0.207-0.217,0.27-0.326 c0.108-0.188,0.14-0.37,0.094-0.542c-0.047-0.172-0.165-0.313-0.353-0.422c-0.107-0.062-0.246-0.109-0.396-0.147 C10.363,14.469,10.363,14.458,10.369,14.448z M10.537,15.002c0.084,0.049,0.135,0.102,0.149,0.158 c0.016,0.057-0.002,0.127-0.051,0.212c-0.042,0.073-0.119,0.158-0.21,0.245c-0.147-0.211-0.216-0.467-0.192-0.723 C10.355,14.924,10.463,14.959,10.537,15.002z M4.85,16.525c0.232-0.4,1.166-1.016,2.669-1.418 c0.313-0.084,0.606-0.144,0.884-0.189l0.11,1.709c-0.172,0.059-0.354,0.112-0.544,0.162c-1.816,0.486-3.082,0.277-3.169-0.053 C4.785,16.682,4.801,16.609,4.85,16.525z"/> </g> </g> </g>
</svg>