<svg width="2477" height="259" viewBox="0 0 2477 259" fill="none" xmlns="http://www.w3.org/2000/svg">
<path d="M208.06 4.39998L251.02 165.5L288.61 4.39998H358.42L290.4 255H222.38L179.42 99.27L136.46 255H68.44L0.42 4.39998H70.23L107.82 165.5L150.78 4.39998H208.06ZM537.588 72.42C537.588 58.1 530.428 50.94 516.108 50.94H455.248C440.928 50.94 433.768 58.1 433.768 72.42V186.98C433.768 201.3 440.928 208.46 455.248 208.46H516.108C530.428 208.46 537.588 201.3 537.588 186.98V72.42ZM602.028 186.98C602.028 212.04 596.3 230.298 584.844 241.754C573.626 252.971 555.488 258.58 530.428 258.58H440.928C415.868 258.58 397.61 252.971 386.154 241.754C374.936 230.298 369.328 212.04 369.328 186.98V72.42C369.328 47.36 374.936 29.2213 386.154 18.004C397.61 6.54798 415.868 0.819986 440.928 0.819986H530.428C555.488 0.819986 573.626 6.54798 584.844 18.004C596.3 29.2213 602.028 47.36 602.028 72.42V186.98ZM799.096 72.42C799.096 58.1 791.936 50.94 777.616 50.94H716.756C702.436 50.94 695.276 58.1 695.276 72.42V186.98C695.276 201.3 702.436 208.46 716.756 208.46H777.616C791.936 208.46 799.096 201.3 799.096 186.98V72.42ZM863.536 186.98C863.536 212.04 857.808 230.298 846.352 241.754C835.134 252.971 816.996 258.58 791.936 258.58H702.436C677.376 258.58 659.118 252.971 647.662 241.754C636.444 230.298 630.836 212.04 630.836 186.98V72.42C630.836 47.36 636.444 29.2213 647.662 18.004C659.118 6.54798 677.376 0.819986 702.436 0.819986H791.936C816.996 0.819986 835.134 6.54798 846.352 18.004C857.808 29.2213 863.536 47.36 863.536 72.42V186.98ZM1039.12 4.39998C1066.09 4.39998 1086.5 11.4407 1100.34 25.522C1114.42 39.3647 1121.46 59.7707 1121.46 86.74V172.66C1121.46 199.629 1114.42 220.155 1100.34 234.236C1086.5 248.079 1066.09 255 1039.12 255H899.503V4.39998H1039.12ZM1057.02 86.74C1057.02 65.26 1046.28 54.52 1024.8 54.52H963.943V204.88H1024.8C1046.28 204.88 1057.02 194.14 1057.02 172.66V86.74ZM1339.75 4.39998L1382.71 165.5L1420.3 4.39998H1490.11L1422.09 255H1354.07L1311.11 99.27L1268.15 255H1200.13L1132.11 4.39998H1201.92L1239.51 165.5L1282.47 4.39998H1339.75ZM1669.27 72.42C1669.27 58.1 1662.11 50.94 1647.79 50.94H1586.93C1572.61 50.94 1565.45 58.1 1565.45 72.42V186.98C1565.45 201.3 1572.61 208.46 1586.93 208.46H1647.79C1662.11 208.46 1669.27 201.3 1669.27 186.98V72.42ZM1733.71 186.98C1733.71 212.04 1727.99 230.298 1716.53 241.754C1705.31 252.971 1687.17 258.58 1662.11 258.58H1572.61C1547.55 258.58 1529.3 252.971 1517.84 241.754C1506.62 230.298 1501.01 212.04 1501.01 186.98V72.42C1501.01 47.36 1506.62 29.2213 1517.84 18.004C1529.3 6.54798 1547.55 0.819986 1572.61 0.819986H1662.11C1687.17 0.819986 1705.31 6.54798 1716.53 18.004C1727.99 29.2213 1733.71 47.36 1733.71 72.42V186.98ZM1769.68 4.39998H1920.04C1945.1 4.39998 1963.24 10.128 1974.46 21.584C1985.91 32.8013 1991.64 50.94 1991.64 76V108.22C1991.64 128.029 1988.3 143.423 1981.62 154.402C1975.17 165.381 1964.79 172.66 1950.47 176.24L1995.22 255H1925.41L1884.24 179.82H1834.12V255H1769.68V4.39998ZM1927.2 76C1927.2 61.68 1920.04 54.52 1905.72 54.52H1834.12V129.7H1905.72C1920.04 129.7 1927.2 122.54 1927.2 108.22V76ZM2091.78 255H2027.34V4.39998H2091.78V102.85H2124L2179.85 4.39998H2247.87L2177.7 127.91L2247.51 255H2179.49L2124 152.97H2091.78V255ZM2261.75 203.09C2327.15 206.67 2371.42 208.46 2394.57 208.46C2400.06 208.46 2404.36 206.909 2407.46 203.806C2410.8 200.465 2412.47 196.049 2412.47 190.56V158.34H2330.13C2305.07 158.34 2286.81 152.731 2275.36 141.514C2264.14 130.058 2258.53 111.8 2258.53 86.74V76C2258.53 50.94 2264.14 32.8013 2275.36 21.584C2286.81 10.128 2305.07 4.39998 2330.13 4.39998H2455.79V54.52H2344.45C2330.13 54.52 2322.97 61.68 2322.97 76V83.16C2322.97 97.48 2330.13 104.64 2344.45 104.64H2408.89C2432.28 104.64 2449.47 110.129 2460.44 121.108C2471.42 132.087 2476.91 149.271 2476.91 172.66V190.56C2476.91 213.949 2471.42 231.133 2460.44 242.112C2449.47 253.091 2432.28 258.58 2408.89 258.58C2396.72 258.58 2383.83 258.341 2370.23 257.864L2337.29 256.432C2312.95 255.239 2287.77 253.568 2261.75 251.42V203.09Z" fill="white"/>
</svg>
