<!DOCTYPE svg PUBLIC "-//W3C//DTD SVG 1.1//EN" "http://www.w3.org/Graphics/SVG/1.1/DTD/svg11.dtd">
<!-- Uploaded to: SVG Repo, www.svgrepo.com, Transformed by: SVG Repo Mixer Tools -->
<svg width="800px" height="800px" viewBox="0 0 32 32" id="svg5" version="1.1" xmlns="http://www.w3.org/2000/svg" xmlns:svg="http://www.w3.org/2000/svg" fill="#000000">
<g id="SVGRepo_bgCarrier" stroke-width="0"/>
<g id="SVGRepo_tracerCarrier" stroke-linecap="round" stroke-linejoin="round"/>
<g id="SVGRepo_iconCarrier"> <defs id="defs2"/> <g id="layer1" transform="translate(-60,-436)"> <path d="m 68,456.01367 a 1,1 0 0 0 -1,1 1,1 0 0 0 1,1 h 8 a 1,1 0 0 0 1,-1 1,1 0 0 0 -1,-1 z" id="path453673" style="color:#005128;fill:#005128;fill-rule:evenodd;stroke-linecap:round;stroke-linejoin:round;stroke-miterlimit:4.1;-inkscape-stroke:none"/> <path d="m 70,453.01367 a 1,1 0 0 0 -1,1 1,1 0 0 0 1,1 h 6 a 1,1 0 0 0 1,-1 1,1 0 0 0 -1,-1 z" id="path453657" style="color:#005128;fill:#005128;fill-rule:evenodd;stroke-linecap:round;stroke-linejoin:round;stroke-miterlimit:4.1;-inkscape-stroke:none"/> <path d="m 73,450.01367 a 1,1 0 0 0 -1,1 1,1 0 0 0 1,1 h 3 a 1,1 0 0 0 1,-1 1,1 0 0 0 -1,-1 z" id="path453639" style="color:#005128;fill:#005128;fill-rule:evenodd;stroke-linecap:round;stroke-linejoin:round;stroke-miterlimit:4.1;-inkscape-stroke:none"/> <path d="m 68.888672,444.01953 a 1,1 0 0 0 -0.595703,0.28711 L 66.5,446.09961 65.707031,445.30664 a 1,1 0 0 0 -1.414062,0 1,1 0 0 0 0,1.41406 l 1.5,1.5 a 1.0001,1.0001 0 0 0 1.414062,0 l 2.5,-2.5 a 1,1 0 0 0 0,-1.41406 1,1 0 0 0 -0.818359,-0.28711 z" id="path453633" style="color:#005128;fill:#005128;fill-rule:evenodd;stroke-linecap:round;stroke-linejoin:round;stroke-miterlimit:4.1;-inkscape-stroke:none"/> <path d="m 67,440.01367 c -3.301857,0 -6,2.69815 -6,6 0,1.76801 0.774349,3.36262 2,4.46289 v 11.53711 a 1.0001,1.0001 0 0 0 1,1 h 2.173828 c 0.415693,1.16039 1.530816,2 2.826172,2 1.295356,0 2.410479,-0.83961 2.826172,-2 H 79 81.173828 c 0.415693,1.16039 1.530816,2 2.826172,2 1.295356,0 2.410479,-0.83961 2.826172,-2 H 90 a 1.0001,1.0001 0 0 0 1,-1 v -7 a 1.0001,1.0001 0 0 0 -0.21875,-0.625 l -4,-5 A 1.0001,1.0001 0 0 0 86,449.01367 h -6 v -2 a 1.0001,1.0001 0 0 0 -1,-1 h -6 c 0,-3.30185 -2.698143,-6 -6,-6 z m 0,2 c 2.220979,0 4,1.77902 4,4 0,2.22098 -1.779021,4 -4,4 -0.84757,0 -1.630859,-0.25926 -2.275391,-0.70312 a 1,1 0 0 0 -0.267578,-0.20117 C 63.565547,448.37778 63,447.26595 63,446.01367 c 0,-2.22098 1.779021,-4 4,-4 z m 5.654297,6 H 78 v 13 h -6.173828 c -0.415693,-1.16039 -1.530816,-2 -2.826172,-2 -1.295356,0 -2.410479,0.83961 -2.826172,2 H 65 v -9.3457 c 0.626269,0.22297 1.29935,0.3457 2,0.3457 2.601207,0 4.826496,-1.67494 5.654297,-4 z m 7.345703,3 h 2 v 5 a 1.0001,1.0001 0 0 0 1,1 h 6 v 4 h -2.173828 c -0.415693,-1.16039 -1.530816,-2 -2.826172,-2 -1.295356,0 -2.410479,0.83961 -2.826172,2 H 80 Z m 4,0 h 1.519531 l 3.199219,4 H 84 Z m -15,10 c 0.564128,0 1,0.43587 1,1 0,0.56413 -0.435872,1 -1,1 -0.564128,0 -1,-0.43587 -1,-1 0,-0.56413 0.435872,-1 1,-1 z m 15,0 c 0.564128,0 1,0.43587 1,1 0,0.56413 -0.435872,1 -1,1 -0.564128,0 -1,-0.43587 -1,-1 0,-0.56413 0.435872,-1 1,-1 z" id="path453615" style="color:#005128;fill:#005128;fill-rule:evenodd;stroke-linecap:round;stroke-linejoin:round;stroke-miterlimit:4.1;-inkscape-stroke:none"/> </g> </g>
</svg>