<?xml version="1.0" encoding="utf-8"?>
<!-- Uploaded to: SVG Repo, www.svgrepo.com, Generator: SVG Repo Mixer Tools -->
<!DOCTYPE svg PUBLIC "-//W3C//DTD SVG 1.1//EN" "http://www.w3.org/Graphics/SVG/1.1/DTD/svg11.dtd">
<svg fill="#000000" width="800px" height="800px" viewBox="0 0 1000 1000" version="1.1" xmlns="http://www.w3.org/2000/svg" xmlns:xlink="http://www.w3.org/1999/xlink"  enable-background="new 0 0 1000 1000" xml:space="preserve">

<g>
<g transform="translate(0.000000,511.000000) scale(0.100000,-0.100000)">
<path d="M3498.5,4987.6c-132.8-38.3-301.3-224.7-347.3-383c-76.6-257.9-38.3-518.4,135.3-878.4c194.1-406,485.2-699.7,891.2-898.9l194.1-97H5000h628.2l194.1,97c406,199.2,697.1,492.8,891.2,898.9c240,497.9,232.4,870.8-17.8,1121c-127.7,127.7-270.7,183.9-408.6,155.8c-150.7-28.1-385.6-211.9-602.6-469.9c-209.4-247.7-574.6-778.8-633.3-921.8c-40.9-97-61.3-97-102.1,0c-117.5,286-732.9,1085.3-955,1246.1C3784.5,5008,3674.7,5036.1,3498.5,4987.6z M3815.1,4372.2c288.5-306.4,559.2-686.9,722.7-1008.7c43.4-86.8,79.2-166,79.2-173.6c0-33.2-86.8-5.1-275.8,89.4c-158.3,79.2-242.6,143-362.6,273.2c-252.8,275.8-423.9,684.3-372.8,886.1C3628.7,4535.6,3674.7,4520.3,3815.1,4372.2z M6394.2,4438.6c30.7-117.5-12.8-298.8-120-518.4c-143-291.1-377.9-528.6-643.5-656.3c-107.2-48.5-209.4-86.8-229.8-81.7c-46,10.2,155.8,380.5,383,704.8c186.4,260.5,508.1,618,559.2,618C6361,4505,6386.6,4474.3,6394.2,4438.6z"/>
<path d="M735.5,1376.9V342.7h2017.3h2017.3v1034.2V2411H2752.9H735.5V1376.9z"/>
<path d="M5229.8,1376.9V342.7h2017.3h2017.3v1034.2V2411H7247.1H5229.8V1376.9z"/>
<path d="M1271.8-2376.9V-4790H3021h1749.2v2413.1V36.2H3021H1271.8V-2376.9z"/>
<path d="M5229.8-2376.9V-4790h1774.7h1774.7v2413.1V36.2H7004.6H5229.8V-2376.9z"/>
</g>
</g>
</svg>