<!DOCTYPE svg PUBLIC "-//W3C//DTD SVG 1.1//EN" "http://www.w3.org/Graphics/SVG/1.1/DTD/svg11.dtd">
<!-- Uploaded to: SVG Repo, www.svgrepo.com, Transformed by: SVG Repo Mixer Tools -->
<svg version="1.1" id="_x34_" xmlns="http://www.w3.org/2000/svg" xmlns:xlink="http://www.w3.org/1999/xlink" viewBox="0 0 512 512" xml:space="preserve" width="800px" height="800px" fill="#000000">
<g id="SVGRepo_bgCarrier" stroke-width="0"/>
<g id="SVGRepo_tracerCarrier" stroke-linecap="round" stroke-linejoin="round"/>
<g id="SVGRepo_iconCarrier"> <g> <rect x="326.258" y="166.342" transform="matrix(-0.7071 0.7071 -0.7071 -0.7071 702.3987 41.76)" style="fill:none;" width="32.585" height="0.001"/> <polygon style="fill:#008800;" points="305.462,192.626 312.825,196.069 331.03,177.863 "/> <path style="fill:none;" d="M111.895,252.893c0,39.663,16.522,75.488,42.971,101.134c25.398,24.625,59.946,39.867,98.031,39.867 c1.042,0,2.066-0.069,3.103-0.092V112.05c-1.042-0.023-2.055-0.159-3.103-0.159C175.15,111.891,111.895,175.142,111.895,252.893z"/> <g> <g> <path style="fill:none;" d="M359.916,161.186c-1.876-2.187-3.837-4.298-5.843-6.365l-23.042,23.041L359.916,161.186z"/> <path style="fill:#00ce00;" d="M433.225,75.705l-52.333,52.334C348.94,96.088,304.792,76.335,256,76.335 c-97.505,0-176.595,79.01-176.595,176.595c0,48.713,19.753,92.862,51.704,124.814l-55.481,55.48 c-0.472-0.473-1.023-0.943-1.574-1.495c-9.994-9.995-18.966-20.619-26.993-31.951c-10.86-15.03-19.91-31.242-27.15-48.398 C6.689,320.137,0,287.006,0,252.93c0-34.155,6.689-67.286,19.91-98.528c12.749-30.063,30.928-57.134,54.143-80.349 s50.287-41.395,80.349-54.144C185.645,6.688,218.776,0,252.931,0c1.023,0,2.046,0.077,3.069,0.077 c32.974,0.315,65.082,7.005,95.38,19.832c30.141,12.75,57.134,30.929,80.349,54.144C432.28,74.604,432.674,75.154,433.225,75.705 z"/> <path style="fill:#00ce00;" d="M256,429.491c-48.766,0-92.915-19.766-124.873-51.725L75.654,433.24 c22.857,22.472,49.33,40.204,78.782,52.66c31.216,13.204,64.34,19.903,98.461,19.903c34.12,0,67.244-6.699,98.461-19.903 c30.125-12.741,57.161-30.965,80.371-54.175c11.37-11.368,21.542-23.656,30.455-36.776l-64.194-37.064 C365.819,401.323,314.205,429.491,256,429.491z"/> <path style="fill:#00ce00;" d="M512,73.344l-0.709,8.579l-17.235,198.945l-61.462-28.804 c-0.236-48.398-19.989-92.232-51.704-124.024l52.333-52.334c8.971,9.051,17.235,18.731,24.632,28.96l48.241-27.936L512,73.344z"/> <path style="fill:#00ce00;" d="M380.861,128.032l-26.789,26.79c2.005,2.067,3.966,4.177,5.843,6.365l-28.885,16.676 l-25.568,14.763l7.363,3.443l119.751,56.002C432.354,203.635,412.631,159.81,380.861,128.032z"/> <path style="fill:#008800;" d="M111.895,252.894c0-77.752,63.255-141.003,141.002-141.003c39.664,0,75.531,16.479,101.176,42.931 l26.789-26.79C348.908,96.071,304.768,76.296,256,76.296c-97.532,0-176.598,79.067-176.598,176.598 c0,48.766,19.767,92.915,51.725,124.872l23.739-23.739C128.417,328.382,111.895,292.556,111.895,252.894z"/> <path style="fill:#008800;" d="M256,429.491c58.205,0,109.819-28.168,141.991-71.605l-33.26-19.205 c-25.806,33.556-66.338,55.215-111.833,55.215c-38.085,0-72.633-15.243-98.031-39.868l-23.739,23.739 C163.085,409.724,207.234,429.491,256,429.491z"/> </g> <path style="opacity:0.1;fill:#FFFFFF;" d="M256,0.077v111.985c-1.023,0-2.046-0.156-3.069-0.156 c-77.752,0-141.025,63.271-141.025,141.024c0,39.663,16.527,75.471,42.969,101.124c25.419,24.633,59.967,39.821,98.056,39.821 c1.023,0,2.046-0.077,3.069-0.077v111.904c-1.023,0-2.046,0.081-3.069,0.081c-34.154,0-67.286-6.69-98.528-19.912 c-17.235-7.24-33.367-16.368-48.399-27.148c-10.703-7.635-20.854-16.135-30.377-25.499c-0.472-0.473-1.023-0.943-1.574-1.495 c-9.994-9.995-18.966-20.619-26.993-31.951c-10.86-15.03-19.91-31.242-27.15-48.398C6.689,320.137,0,287.006,0,252.93 c0-34.155,6.689-67.286,19.91-98.528c12.749-30.063,30.928-57.134,54.143-80.349s50.287-41.395,80.349-54.144 C185.645,6.688,218.776,0,252.931,0C253.954,0,254.977,0.077,256,0.077z"/> </g> </g> </g>
</svg>