<?xml version="1.0" encoding="utf-8"?><!-- Uploaded to: SVG Repo, www.svgrepo.com, Generator: SVG Repo Mixer Tools -->
<svg width="800px" height="800px" viewBox="0 0 24 24" xmlns="http://www.w3.org/2000/svg" id="shipping" class="icon glyph"><path d="M21.89,11.55,20.17,8.1A2,2,0,0,0,18.38,7H17V6a2,2,0,0,0-2-2H4A2,2,0,0,0,2,6V16a2,2,0,0,0,2,2H5.18a3,3,0,0,0,5.64,0h2.36a3,3,0,0,0,5.64,0H20a2,2,0,0,0,2-2V12A1,1,0,0,0,21.89,11.55ZM8,18a1,1,0,1,1,1-1A1,1,0,0,1,8,18Zm8,0a1,1,0,1,1,1-1A1,1,0,0,1,16,18Zm4-2H18.83s0-.05,0-.08a3.78,3.78,0,0,0-.17-.35l-.11-.21a3.29,3.29,0,0,0-.33-.41.8.8,0,0,0-.13-.13,3.29,3.29,0,0,0-.41-.33l-.21-.11-.35-.17-.08,0V9h1.39L20,12.24Z" style="fill:#231f20"></path></svg>